<svg width="124" height="188" viewBox="2 12 43 34" fill="none" xmlns="http://www.w3.org/2000/svg">
  <path d="M31.0547 20.3672C30.5339 20.3932 30.0911 20.4583 29.7266 20.5625C29.388 20.6406 29.0755 20.8359 28.7891 21.1484C28.5026 21.4349 28.2161 21.8516 27.9297 22.3984C27.6693 22.9193 27.3438 23.6224 26.9531 24.5078L17.0703 49.5078H16.4062L5.42969 25.0156C4.9349 24 4.50521 23.1927 4.14062 22.5938C3.80208 21.9948 3.46354 21.5391 3.125 21.2266C2.8125 20.888 2.46094 20.6667 2.07031 20.5625C1.70573 20.4323 1.25 20.3672 0.703125 20.3672V19.4688H12.6172V20.3672L11.2891 20.4062C9.90885 20.4844 9.21875 20.9531 9.21875 21.8125C9.21875 21.9948 9.24479 22.2031 9.29688 22.4375C9.34896 22.6458 9.4401 22.9323 9.57031 23.2969C9.70052 23.6615 9.88281 24.1172 10.1172 24.6641C10.3516 25.2109 10.6641 25.901 11.0547 26.7344L17.7734 41.8125L24.2969 25.4844C24.6094 24.7812 24.8307 24.1432 24.9609 23.5703C25.1172 22.9974 25.1953 22.5286 25.1953 22.1641C25.1953 21.9557 25.1302 21.7344 25 21.5C24.8698 21.2396 24.7005 21.0443 24.4922 20.9141C24.2057 20.7057 23.8932 20.5755 23.5547 20.5234C23.2422 20.4453 22.7083 20.3932 21.9531 20.3672V19.4688H31.0547V20.3672Z" fill="#E1CFFF"/>
  <path fill-rule="evenodd" clip-rule="evenodd" d="M40.2357 42.6621C41.1286 40.8315 40.3913 38.6276 38.5783 37.7433C36.7653 36.859 34.5748 37.635 33.6819 39.4656C32.789 41.2963 33.5262 43.5002 35.3392 44.3845C37.1522 45.2687 39.3428 44.4928 40.2357 42.6621ZM37.756 39.4292C38.6409 39.8608 39.0087 40.9422 38.5668 41.8482C38.1249 42.7542 37.0464 43.1301 36.1615 42.6985C35.2766 42.267 34.9088 41.1856 35.3507 40.2796C35.7926 39.3736 36.8712 38.9976 37.756 39.4292Z" fill="#E1CFFF"/>
  <path fill-rule="evenodd" clip-rule="evenodd" d="M26.3291 27.3219C26.6631 27.9481 27.1285 28.3242 27.5997 28.543C27.2563 28.9211 27.0274 29.3493 26.902 29.8053C26.643 30.7481 26.8718 31.6508 27.152 32.2071L27.1569 32.2168L27.162 32.2264C27.6888 33.2141 28.5239 33.6198 29.1928 33.7671C29.5206 33.8394 29.8129 33.8519 30.024 33.8469C30.1306 33.8443 30.2196 33.8372 30.2858 33.8301C30.3032 33.8282 30.3192 33.8264 30.3337 33.8245C30.5665 33.8147 30.7662 33.7728 30.9217 33.7315L30.9267 33.7465L31.1866 34.5191C30.7744 34.8489 30.4195 35.2518 30.1373 35.6187C29.6812 36.2112 29.3218 36.8332 29.1225 37.2419C26.9838 41.6267 28.7524 46.897 33.0834 49.0093C37.4144 51.1217 42.6562 49.2707 44.7949 44.8858C46.9335 40.501 45.165 35.2308 40.8339 33.1184C39.8137 32.6208 38.8255 32.4292 38.0973 32.3603C37.912 32.3427 37.7421 32.333 37.5911 32.3283L33.5295 20.253C33.3859 19.8262 33.0567 19.2471 32.4877 18.8431C31.8707 18.405 31.036 18.2232 30.0673 18.5644L28.607 19.079C28.5844 19.0868 28.5622 19.0957 28.5404 19.1053C28.159 19.2736 27.6448 19.618 27.2784 20.1546C26.8854 20.7301 26.6769 21.5162 26.9795 22.4159L27.2966 23.3588C26.6645 23.7919 26.2783 24.3872 26.1037 25.0268C25.8773 25.8563 26.0192 26.7073 26.3191 27.3026L26.324 27.3123L26.3291 27.3219ZM40.0117 34.8043C43.4146 36.464 44.8137 40.6116 43.1261 44.0719C41.4384 47.5322 37.3086 48.9832 33.9057 47.3234C30.5028 45.6637 29.1036 41.5161 30.7913 38.0558C30.9411 37.7488 31.235 37.2378 31.6047 36.7574C31.9916 36.2547 32.3755 35.8991 32.6813 35.7591C33.1191 35.5587 33.3365 35.0572 33.1831 34.6011L32.6894 33.1335C32.5765 32.7978 32.4294 32.4563 32.1932 32.1986C31.8939 31.8724 31.515 31.7451 31.1381 31.7675C30.9146 31.7807 30.6695 31.8582 30.5673 31.8903L30.5329 31.9011C30.4091 31.9377 30.3322 31.9533 30.2551 31.9545L30.182 31.9556L30.1187 31.9668L30.1031 31.9686C30.0819 31.9708 30.0445 31.974 29.995 31.9753C29.8937 31.9777 29.7546 31.9713 29.6045 31.9382C29.3203 31.8756 29.0181 31.7274 28.8081 31.3406C28.6813 31.083 28.5912 30.6685 28.6949 30.2907C28.7818 29.9747 29.0473 29.5202 29.9753 29.1931C30.46 29.0224 30.7194 28.4905 30.5555 28.0034L30.391 27.5143C30.236 27.0535 29.7548 26.7929 29.2854 26.9141C29.2828 26.9148 29.2753 26.9165 29.2636 26.9188C29.2393 26.9237 29.198 26.9311 29.1442 26.9374C29.0337 26.9503 28.8862 26.957 28.731 26.937C28.4384 26.8995 28.1637 26.782 27.9753 26.4363C27.8683 26.2172 27.805 25.8477 27.8975 25.5091C27.976 25.2213 28.1775 24.9022 28.7378 24.7047C29.2225 24.534 29.4819 24.0021 29.318 23.515L28.7422 21.8029C28.6499 21.5284 28.7081 21.3543 28.8091 21.2063C28.9286 21.0312 29.1179 20.8954 29.2499 20.831L30.6696 20.3308C31.0641 20.1918 31.2731 20.2806 31.4071 20.3757C31.5892 20.505 31.7183 20.722 31.7668 20.866L36.0462 33.5888C36.1843 33.9995 36.5875 34.2571 37.0174 34.2091L37.0226 34.2086C37.0291 34.208 37.0417 34.2069 37.06 34.2055C37.0965 34.203 37.1556 34.1997 37.2339 34.198C37.391 34.1945 37.6238 34.1972 37.9083 34.2241C38.4807 34.2784 39.2408 34.4283 40.0117 34.8043ZM29.2854 26.9141C29.2829 26.9148 29.2804 26.9155 29.2777 26.9161L29.2799 26.9156L29.2854 26.9141Z" fill="#E1CFFF"/>
  </svg>
  